<svg height='300px' width='300px'  fill="#000000" xmlns="http://www.w3.org/2000/svg" xmlns:xlink="http://www.w3.org/1999/xlink" version="1.1" x="0px" y="0px" viewBox="0 0 128 128" style="enable-background:new 0 0 128 128;" xml:space="preserve"><g><path d="M117.5578613,103.5232544c-2.7111816-0.9249878-3.1203613-3.2087402-3.1339111-3.2858887   c-0.0115967-0.085022-0.0303955-0.1687622-0.055542-0.2509155c-0.4189453-1.3587036-1.1269531-2.4710083-1.9589844-3.3844604   c-1.4820557-2.3040161-3.8808594-3.9545288-6.6842041-4.4430542c-0.8748779-0.9071045-2.2381592-1.5818481-4.2272949-1.5818481   c-3.1726074,0-4.6726074,1.6538086-5.8780518,2.9827271c-1.0463867,1.1539307-1.7380371,1.9159546-3.4619141,1.9159546   c-0.8879395,0-1.6072998,0.7196655-1.6072998,1.6072388s0.7193604,1.6072388,1.6072998,1.6072388   c0.6796875,0,1.2692871-0.088501,1.8085938-0.222229c-0.7106934,0.5238037-1.3977051,0.8027344-1.8085938,0.8027344   c-0.8879395,0-1.6072998,0.7196655-1.6072998,1.6072388s0.7193604,1.6072388,1.6072998,1.6072388   c0.5523682,0,1.1867676-0.1379395,1.8466797-0.3939819c0,0.0136719,0.0018311,0.0270386,0.0019531,0.0407104   c-0.7248535,0.5436401-1.4300537,0.8345947-1.8486328,0.8345947c-0.8879395,0-1.6072998,0.7196655-1.6072998,1.6072388   c0,0.8876343,0.7193604,1.6072998,1.6072998,1.6072998c0.5461426,0,1.1724854-0.1351318,1.8242188-0.385498   c-1.2236328,1.0936279-2.6746826,1.788147-3.8599854,1.788147c-0.8878174,0-1.6072998,0.7196655-1.6072998,1.6072388   c0,0.8876343,0.7194824,1.6072388,1.6072998,1.6072388c1.5943604,0,3.2479248-0.6115723,4.7279053-1.6127319   c-0.6818848,0.8843994-1.5219727,1.5482178-2.479248,1.9028931c-0.8317871,0.3084106-1.2567139,1.2331543-0.9484863,2.0655518   c0.2406006,0.6482544,0.854248,1.0492554,1.5073242,1.0492554c0.1856689,0,0.3745117-0.0324707,0.5587158-0.100708   c1.9105225-0.7080078,3.5123291-2.1281128,4.6347656-4.0239868C99.7740479,111.2816162,101.8007812,112,104,112   c3.092041,0,5.8549805-1.4046021,7.689209-3.6091309c0.1330566,0.9766846,0.2219238,1.9977417,0.2219238,3.0012207   c0,0.8875732,0.7192383,1.6072388,1.6071777,1.6072388c0.8878174,0,1.6071777-0.7196655,1.6071777-1.6072388   c0-2.0488281-0.30896-4.1251831-0.6662598-5.8444214c0.5793457,0.3930664,1.2587891,0.7443237,2.0605469,1.0179443   c0.1721191,0.0585938,0.3469238,0.0866089,0.519043,0.0866089c0.6687012,0,1.293457-0.4206543,1.5209961-1.0888062   C118.8464355,104.7232056,118.3981934,103.8099365,117.5578613,103.5232544z M104,110   c-1.8962402,0-3.6379395-0.6662598-5.010498-1.7727661c-0.5534668-0.446228-1.0424805-0.9665527-1.4605713-1.5425415   c-0.3658447-0.5039673-0.6785889-1.0481567-0.9202881-1.6307983c-0.0922852-0.2227783-0.1772461-0.4494019-0.2495117-0.6817627   c-0.1407471-0.4525146-0.2365723-0.9240723-0.2949219-1.4067993c-0.0100098-0.081604-0.0202637-0.1628418-0.02771-0.2451172   c0.0443115-0.0032349,0.0853271-0.0093384,0.1290283-0.0130005c0.7348633-0.0618286,1.4038086-0.1825562,2.00354-0.3595581   c0.5308838-0.1567383,1.0067139-0.3574829,1.4420166-0.5871582c2.4709473-1.3042603,3.4812012-3.6508789,3.880249-5.56604   c0.1212158,1.673584,0.6020508,3.5662231,2.0814209,4.2592773c0.8232422,0.3856812,1.4665527,1.0640259,1.7264404,1.9352417   c0.4029541,1.3511353,1.3717041,3.1691284,3.6478271,3.5626221C109.5682373,108.3657227,106.9736328,110,104,110z"></path><path d="M81.5566406,50.6679688c-0.2802734-0.4785156-0.8916016-0.6367188-1.3681641-0.3583984   c-0.4765625,0.2792969-0.6367188,0.8916016-0.3583984,1.3681641l0.5048828,0.8632812   c0.1865234,0.3183594,0.5205078,0.4951172,0.8642578,0.4951172c0.171875,0,0.3447266-0.0439453,0.5039062-0.1367188   c0.4765625-0.2792969,0.6367188-0.8916016,0.3583984-1.3681641L81.5566406,50.6679688z"></path><path d="M86.6054688,59.2998047c-0.2802734-0.4785156-0.890625-0.6376953-1.3681641-0.3583984   c-0.4765625,0.2792969-0.6367188,0.8916016-0.3583984,1.3681641l0.5048828,0.8632812   c0.1865234,0.3183594,0.5205078,0.4951172,0.8642578,0.4951172c0.171875,0,0.3447266-0.0439453,0.5039062-0.1367188   c0.4765625-0.2792969,0.6367188-0.8916016,0.3583984-1.3681641L86.6054688,59.2998047z"></path><path d="M95.4804688,78.4365234c0.1865234,0.3183594,0.5205078,0.4951172,0.8642578,0.4951172   c0.171875,0,0.3457031-0.0439453,0.5039062-0.1367188c0.4765625-0.2792969,0.6367188-0.8916016,0.3583984-1.3681641   l-0.5048828-0.8623047c-0.2802734-0.4785156-0.8945312-0.6376953-1.3681641-0.3583984   c-0.4765625,0.2792969-0.6367188,0.8916016-0.3583984,1.3681641L95.4804688,78.4365234z"></path><path d="M89.2763672,65.8476562c0.4765625-0.2792969,0.6367188-0.8916016,0.3583984-1.3681641l-0.5048828-0.8632812   c-0.2802734-0.4775391-0.8916016-0.6376953-1.3681641-0.3583984S87.125,64.1494141,87.4033203,64.6259766l0.5048828,0.8632812   c0.1865234,0.3183594,0.5205078,0.4951172,0.8642578,0.4951172C88.9443359,65.984375,89.1171875,65.9404297,89.2763672,65.8476562z   "></path><path d="M98.0048828,82.7529297c0.1865234,0.3183594,0.5205078,0.4951172,0.8642578,0.4951172   c0.171875,0,0.3447266-0.0439453,0.5039062-0.1367188c0.4765625-0.2792969,0.6367188-0.8916016,0.3583984-1.3681641   l-0.5048828-0.8632812c-0.2802734-0.4785156-0.890625-0.6376953-1.3681641-0.3583984   C97.3818359,80.8007812,97.2216797,81.4130859,97.5,81.8896484L98.0048828,82.7529297z"></path><path d="M100.5292969,87.0693359c0.1865234,0.3183594,0.5205078,0.4951172,0.8642578,0.4951172   c0.171875,0,0.3447266-0.0439453,0.5039062-0.1367188c0.4765625-0.2792969,0.6367188-0.8916016,0.3583984-1.3681641   l-0.5048828-0.8632812c-0.2802734-0.4775391-0.8916016-0.6376953-1.3681641-0.3583984s-0.6367188,0.8916016-0.3583984,1.3681641   L100.5292969,87.0693359z"></path><path d="M90.4316406,69.8037109c0.1855469,0.3183594,0.5205078,0.4960938,0.8642578,0.4960938   c0.1708984,0,0.3447266-0.0439453,0.5029297-0.1367188c0.4775391-0.2783203,0.6376953-0.890625,0.359375-1.3671875   l-0.5039062-0.8632812c-0.2773438-0.4765625-0.890625-0.6376953-1.3671875-0.359375   c-0.4775391,0.2783203-0.6376953,0.890625-0.359375,1.3671875L90.4316406,69.8037109z"></path><path d="M92.9560547,74.1210938c0.1865234,0.3183594,0.5205078,0.4951172,0.8642578,0.4951172   c0.171875,0,0.3447266-0.0439453,0.5039062-0.1367188c0.4765625-0.2792969,0.6367188-0.8916016,0.3583984-1.3681641   l-0.5048828-0.8632812c-0.2802734-0.4785156-0.8916016-0.6367188-1.3681641-0.3583984   c-0.4765625,0.2792969-0.6367188,0.8916016-0.3583984,1.3681641L92.9560547,74.1210938z"></path><path d="M84.0810547,54.984375c-0.2802734-0.4785156-0.8916016-0.6376953-1.3681641-0.3583984   s-0.6367188,0.8916016-0.3583984,1.3681641l0.5048828,0.8632812c0.1865234,0.3183594,0.5205078,0.4951172,0.8642578,0.4951172   c0.171875,0,0.3447266-0.0439453,0.5039062-0.1367188c0.4765625-0.2792969,0.6367188-0.8916016,0.3583984-1.3681641   L84.0810547,54.984375z"></path><path d="M66,81c0-0.5527344-0.4472656-1-1-1s-1,0.4472656-1,1v1c0,0.5527344,0.4472656,1,1,1s1-0.4472656,1-1V81z"></path><path d="M66,76c0-0.5527344-0.4472656-1-1-1s-1,0.4472656-1,1v1c0,0.5527344,0.4472656,1,1,1s1-0.4472656,1-1V76z"></path><path d="M65,85c-0.5527344,0-1,0.4472656-1,1v1c0,0.5527344,0.4472656,1,1,1s1-0.4472656,1-1v-1C66,85.4472656,65.5527344,85,65,85   z"></path><path d="M64.6181641,16.359375c0.5527344,0,1-0.4472656,1-1v-2.8554688c0-0.5527344-0.4472656-1-1-1s-1,0.4472656-1,1v2.8554688   C63.6181641,15.9121094,64.0654297,16.359375,64.6181641,16.359375z"></path><path d="M71.6601562,17.7841797c0.1230469,0.0507812,0.2519531,0.0742188,0.3779297,0.0742188   c0.3935547,0,0.7675781-0.234375,0.9257812-0.6220703l1.0800781-2.6435547   c0.2089844-0.5107422-0.0361328-1.0947266-0.5478516-1.3037109c-0.5068359-0.2089844-1.0947266,0.0361328-1.3037109,0.5478516   l-1.0800781,2.6435547C70.9033203,16.9912109,71.1484375,17.5751953,71.6601562,17.7841797z"></path><path d="M77.5107422,21.2382812c0.2900391,0,0.5771484-0.125,0.7744141-0.3662109l1.8095703-2.2089844   c0.3505859-0.4277344,0.2871094-1.0576172-0.1396484-1.4072266c-0.4277344-0.3515625-1.0585938-0.2861328-1.4072266,0.1396484   l-1.8095703,2.2089844c-0.3505859,0.4277344-0.2871094,1.0576172,0.1396484,1.4072266   C77.0634766,21.1640625,77.2880859,21.2382812,77.5107422,21.2382812z"></path><path d="M56.3251953,17.2363281c0.1582031,0.3876953,0.5322266,0.6220703,0.9257812,0.6220703   c0.1259766,0,0.2539062-0.0234375,0.3779297-0.0742188c0.5117188-0.2089844,0.7568359-0.7919922,0.5478516-1.3037109   l-1.0791016-2.6435547c-0.2089844-0.5126953-0.7929688-0.7578125-1.3037109-0.5478516   c-0.5117188,0.2089844-0.7568359,0.7919922-0.5478516,1.3037109L56.3251953,17.2363281z"></path><path d="M51.0048828,20.8720703c0.1972656,0.2412109,0.484375,0.3662109,0.7744141,0.3662109   c0.2226562,0,0.4472656-0.0742188,0.6328125-0.2265625c0.4277344-0.3505859,0.4892578-0.9804688,0.1396484-1.4072266   l-1.8105469-2.2089844c-0.3496094-0.4267578-0.9804688-0.4912109-1.4072266-0.1396484   c-0.4277344,0.3505859-0.4892578,0.9804688-0.1396484,1.4072266L51.0048828,20.8720703z"></path><path d="M80.0771484,42.8730469c0.8857422-2.0839844,1.3349609-4.2890625,1.3349609-6.5556641   c0-4.6240234-1.8398438-8.9326172-5.1806641-12.1318359c-3.3388672-3.1972656-7.7265625-4.84375-12.3603516-4.6464844   c-8.3105469,0.3603516-15.3349609,7.1367188-15.9941406,15.4267578c-0.2167969,2.7451172,0.2177734,5.4121094,1.2919922,7.9306641   c0.0136719,0.0439453,0.0302734,0.0859375,0.0488281,0.1279297l3.5703125,7.7373047   c0.8242188,1.7861328,1.4423828,3.6689453,1.8388672,5.6025391l0.6894531,3.2568359   C55.6074219,60.9990234,56.8417969,62,58.2519531,62h12.7373047c1.4091797,0,2.6435547-1.0009766,2.9345703-2.3789062   l0.6914062-3.2636719c0.3945312-1.9257812,1.0117188-3.8085938,1.8369141-5.5957031l3.5703125-7.7373047   C80.0449219,42.9755859,80.0634766,42.9248047,80.0771484,42.8730469z M63.5576172,35.1416016h0.8720703   c0.0727539,0,0.1367188-0.0266724,0.2050781-0.0413818c0.0683594,0.0147095,0.1323242,0.0413818,0.2050781,0.0413818h0.8720703   c0.1894531,1.7724609,1.6923828,3.1572266,3.5136719,3.1572266h3.0845947L67.4516602,60H61.815918l-4.8585205-21.7011719h3.0865479   C61.8652344,38.2988281,63.3681641,36.9140625,63.5576172,35.1416016z M61.5771484,33.1416016h-1.5332031   c-0.8457031,0-1.5341797-0.6884766-1.5341797-1.5390625c0-0.8457031,0.6884766-1.5332031,1.5341797-1.5332031   s1.5332031,0.6875,1.5332031,1.5332031V33.1416016z M78.1875,42.2060547   c-0.015625,0.0341797-0.0283203,0.0693359-0.0390625,0.1054688l-3.5126953,7.6123047   c-0.8886719,1.9267578-1.5546875,3.9570312-1.9785156,6.0263672l-0.6904297,3.2568359   C71.8701172,59.6669922,71.4589844,60,70.9892578,60h-1.4884033l5.8077393-25.9414062   c0.1210938-0.5390625-0.2177734-1.0742188-0.7568359-1.1943359c-0.5419922-0.1191406-1.0742188,0.2197266-1.1943359,0.7568359   l-0.5994873,2.6777344h-3.5323486c-0.7158203,0-1.3183594-0.4931641-1.4863281-1.1572266h1.4863281   c1.9492188,0,3.5341797-1.5849609,3.5341797-3.5390625c0-1.9482422-1.5849609-3.5332031-3.5341797-3.5332031   c-1.9482422,0-3.5332031,1.5849609-3.5332031,3.5332031v1.5390625h-0.8525391   c-0.0727539,0-0.1367188,0.0266113-0.2050781,0.0413208c-0.0683594-0.0147095-0.1323242-0.0413208-0.2050781-0.0413208h-0.8525391   v-1.5390625c0-1.9482422-1.5849609-3.5332031-3.5332031-3.5332031c-1.9492188,0-3.5341797,1.5849609-3.5341797,3.5380859   c0,1.9492188,1.5849609,3.5341797,3.5341797,3.5341797h1.4863281c-0.1679688,0.6640625-0.7705078,1.1572266-1.4863281,1.1572266   h-3.5343018l-0.5994873-2.6777344c-0.1201172-0.5380859-0.6474609-0.8769531-1.1943359-0.7568359   c-0.5390625,0.1201172-0.8779297,0.6552734-0.7568359,1.1943359L59.7667236,60h-1.5147705   c-0.4697266,0-0.8818359-0.3330078-0.9785156-0.7929688l-0.6884766-3.2509766   c-0.4257812-2.0771484-1.0927734-4.1064453-1.9804688-6.0322266l-3.5234375-7.6367188   c-0.0097656-0.0273438-0.0205078-0.0546875-0.0322266-0.0820312c-0.9755859-2.2460938-1.3720703-4.6279297-1.1777344-7.0810547   c0.5800781-7.3007812,6.7675781-13.2695312,14.0859375-13.5869141c4.0869141-0.1777344,7.9492188,1.2763672,10.890625,4.0927734   c2.9433594,2.8183594,4.5644531,6.6142578,4.5644531,10.6875C79.4121094,38.3554688,79,40.3359375,78.1875,42.2060547z    M67.6923828,33.1416016v-1.5390625c0-0.8457031,0.6875-1.5332031,1.5332031-1.5332031s1.5341797,0.6875,1.5341797,1.5380859   c0,0.8457031-0.6884766,1.5341797-1.5341797,1.5341797H67.6923828z"></path><path d="M73,64c0-0.5527344-0.4472656-1-1-1H57c-0.5527344,0-1,0.4472656-1,1s0.4472656,1,1,1h15   C72.5527344,65,73,64.5527344,73,64z"></path><path d="M71,67c0-0.5527344-0.4472656-1-1-1H59c-0.5527344,0-1,0.4472656-1,1s0.4472656,1,1,1h11   C70.5527344,68,71,67.5527344,71,67z"></path><path d="M70,70c0-0.5527344-0.4472656-1-1-1h-9c-0.5527344,0-1,0.4472656-1,1s0.4472656,1,1,1h9C69.5527344,71,70,70.5527344,70,70   z"></path><g><path d="M25,92c-5.5228271,0-10,4.4771729-10,10s4.4771729,10,10,10s10-4.4771729,10-10S30.5228271,92,25,92z M25,110    c-4.4112549,0-8-3.5888062-8-8c0-0.6916504,0.0975342-1.359436,0.2633057-2h5.3577881    c0.5620117,0,1.0982666-0.2366333,1.4772949-0.6518555l0.7077637-0.7756958    c0.7687988-0.8424072,2.0852051-0.8724365,2.8916016-0.06604l0.9078369,0.9077759    C28.9807129,99.7892456,29.4892578,100,30.0197754,100h2.7169189C32.9024658,100.640564,33,101.3083496,33,102    C33,106.4111938,29.4112549,110,25,110z"></path><path d="M76.8815918,100.2037354c-1.6357422-0.8568115-3.8649902-2.3565063-4.881958-4.5317993    c-2.0653076-4.4177856-6.215332-3.5068359-6.215332-3.5068359l0.001709,0.0161133    c-0.5906982-0.1119995-1.1984863-0.1755371-1.8210449-0.1786499L63.9666748,92    c-0.0096436,0-0.0180664,0.0012207-0.02771,0.0012207C63.9306641,92.0012207,63.9228516,92,63.9145508,92    c-0.1253662,0-0.2470703,0.0141602-0.3713379,0.0187378c-8.2564697,0.2002563-10.1445312,6.0443115-10.9436035,9.4069214    c-0.5703125,2.3995361-1.7773438,5.156189-2.7924805,7.2285156c-0.711792,1.4532471,0.5168457,3.1260986,2.1118164,2.8522339    c2.5640869-0.4403687,4.4979248-1.2396851,5.6239014-1.7997437C59.2730713,111.1387939,61.493042,112,63.9145508,112    c3.7878418,0,7.0828857-2.1066895,8.7799072-5.211792c1.2496338-0.657959,3.2741699-1.8708496,4.7144775-3.4696045    C78.2817383,102.3496704,78.0367432,100.8088379,76.8815918,100.2037354z M56.9140625,105.8635864    c6.440918-1.3215332,9.1520996-4.918396,10.2868652-7.6774292c0.8647461,1.0106201,2.364502,2.255127,4.5889893,2.4532471    c0.076416,0.4431763,0.1246338,0.8959351,0.1246338,1.3605957c0,4.4111938-3.5887451,8-8,8    C60.9041748,110,58.2790527,108.3271484,56.9140625,105.8635864z"></path><path d="M30.6259766,82.3085938c0.1572266,0.0917969,0.3300781,0.1347656,0.5,0.1347656    c0.3447266,0,0.6806641-0.1787109,0.8662109-0.4990234l0.5009766-0.8652344    c0.2773438-0.4775391,0.1142578-1.0898438-0.3642578-1.3662109c-0.4765625-0.2783203-1.0888672-0.1142578-1.3662109,0.3642578    l-0.5009766,0.8652344C29.984375,81.4199219,30.1474609,82.0322266,30.6259766,82.3085938z"></path><path d="M42.1591797,62.4101562c-0.4775391-0.2783203-1.0898438-0.1142578-1.3662109,0.3642578l-0.5009766,0.8652344    c-0.2773438,0.4775391-0.1142578,1.0898438,0.3642578,1.3662109c0.1572266,0.0917969,0.3300781,0.1347656,0.5,0.1347656    c0.3447266,0,0.6806641-0.1787109,0.8662109-0.4990234l0.5009766-0.8652344    C42.8007812,63.2988281,42.6376953,62.6865234,42.1591797,62.4101562z"></path><path d="M25.8378906,90.5673828c0.1582031,0.0917969,0.3310547,0.1347656,0.5009766,0.1347656    c0.3447266,0,0.6806641-0.1787109,0.8662109-0.4980469l0.2734375-0.4716797    c0.2773438-0.4785156,0.1142578-1.0898438-0.3632812-1.3671875c-0.4794922-0.2792969-1.0908203-0.1132812-1.3671875,0.3632812    l-0.2734375,0.4716797C25.1972656,89.6787109,25.3603516,90.2900391,25.8378906,90.5673828z"></path><path d="M28.1171875,86.6347656c0.1582031,0.0917969,0.3310547,0.1347656,0.5009766,0.1347656    c0.3447266,0,0.6806641-0.1787109,0.8662109-0.4980469l0.5019531-0.8652344    c0.2773438-0.4775391,0.1142578-1.0898438-0.3632812-1.3671875c-0.4804688-0.2783203-1.0908203-0.1132812-1.3671875,0.3632812    l-0.5019531,0.8652344C27.4765625,85.7451172,27.6396484,86.3574219,28.1171875,86.6347656z"></path><path d="M37.1455078,71.0615234c-0.4794922-0.2783203-1.0908203-0.1142578-1.3671875,0.3632812l-0.5019531,0.8652344    c-0.2773438,0.4775391-0.1142578,1.0898438,0.3632812,1.3671875c0.1582031,0.0917969,0.3310547,0.1347656,0.5009766,0.1347656    c0.3447266,0,0.6806641-0.1787109,0.8662109-0.4980469l0.5019531-0.8652344    C37.7861328,71.9511719,37.6230469,71.3388672,37.1455078,71.0615234z"></path><path d="M44.6679688,58.0839844c-0.4794922-0.2792969-1.0898438-0.1132812-1.3671875,0.3632812L42.7988281,59.3125    c-0.2773438,0.4775391-0.1142578,1.0898438,0.3632812,1.3671875c0.1582031,0.0917969,0.3310547,0.1347656,0.5009766,0.1347656    c0.3447266,0,0.6806641-0.1787109,0.8662109-0.4980469l0.5019531-0.8652344    C45.3085938,58.9736328,45.1455078,58.3613281,44.6679688,58.0839844z"></path><path d="M34.6367188,75.3876953c-0.4765625-0.2783203-1.0898438-0.1142578-1.3662109,0.3642578l-0.5009766,0.8652344    c-0.2773438,0.4775391-0.1142578,1.0898438,0.3642578,1.3662109c0.1572266,0.0917969,0.3300781,0.1347656,0.5,0.1347656    c0.3447266,0,0.6806641-0.1787109,0.8662109-0.4990234l0.5009766-0.8652344    C35.2783203,76.2763672,35.1152344,75.6640625,34.6367188,75.3876953z"></path><path d="M39.6523438,66.7363281c-0.4804688-0.2792969-1.0908203-0.1132812-1.3671875,0.3632812l-0.5009766,0.8642578    c-0.2773438,0.4785156-0.1142578,1.0898438,0.3632812,1.3671875c0.1582031,0.0917969,0.3310547,0.1347656,0.5009766,0.1347656    c0.3447266,0,0.6806641-0.1787109,0.8662109-0.4980469l0.5009766-0.8642578    C40.2929688,67.625,40.1298828,67.0136719,39.6523438,66.7363281z"></path><path d="M49.6826172,49.4326172c-0.4804688-0.2792969-1.0908203-0.1132812-1.3671875,0.3632812l-0.5019531,0.8652344    c-0.2773438,0.4775391-0.1142578,1.0898438,0.3632812,1.3671875c0.1582031,0.0917969,0.3310547,0.1347656,0.5009766,0.1347656    c0.3447266,0,0.6806641-0.1787109,0.8662109-0.4980469l0.5019531-0.8652344    C50.3232422,50.3222656,50.1601562,49.7099609,49.6826172,49.4326172z"></path><path d="M47.1738281,53.7587891c-0.4775391-0.2783203-1.0898438-0.1142578-1.3662109,0.3642578l-0.5009766,0.8652344    c-0.2773438,0.4775391-0.1142578,1.0898438,0.3642578,1.3662109c0.1572266,0.0917969,0.3300781,0.1347656,0.5,0.1347656    c0.3447266,0,0.6806641-0.1787109,0.8662109-0.4990234L47.5380859,55.125    C47.8154297,54.6474609,47.6523438,54.0351562,47.1738281,53.7587891z"></path></g></g></svg>